<?xml version="1.0" encoding="UTF-8"?>
<svg id="Layer_1" data-name="Layer 1" xmlns="http://www.w3.org/2000/svg" xmlns:xlink="http://www.w3.org/1999/xlink" viewBox="0 0 1000 1000">
  <defs>
    <style>
      .cls-1 {
        fill: url(#linear-gradient-2);
      }

      .cls-2 {
        fill: url(#linear-gradient-4);
      }

      .cls-3 {
        fill: url(#linear-gradient-3);
      }

      .cls-4 {
        fill: url(#linear-gradient-5);
      }

      .cls-5 {
        fill: #174309;
      }

      .cls-6 {
        fill: url(#linear-gradient-8);
      }

      .cls-7 {
        fill: url(#linear-gradient-7);
      }

      .cls-8 {
        fill: url(#linear-gradient-9);
      }

      .cls-9 {
        fill: url(#linear-gradient-6);
      }

      .cls-10 {
        font-family: EternalBloom-Regular, 'Eternal Bloom';
        font-size: 439.33px;
      }

      .cls-11 {
        fill: url(#linear-gradient);
      }
    </style>
    <linearGradient id="linear-gradient" x1="282.15" y1="493.2" x2="723.96" y2="51.39" gradientUnits="userSpaceOnUse">
      <stop offset="0" stop-color="#e8bc80"/>
      <stop offset=".31" stop-color="#a7795f"/>
      <stop offset=".65" stop-color="#e8bc80"/>
      <stop offset="1" stop-color="#a7795f"/>
    </linearGradient>
    <linearGradient id="linear-gradient-2" x1="577.02" y1="338.19" x2="610.55" y2="304.66" xlink:href="#linear-gradient"/>
    <linearGradient id="linear-gradient-3" x1="396.77" y1="337.14" x2="428.67" y2="305.24" xlink:href="#linear-gradient"/>
    <linearGradient id="linear-gradient-4" x1="224.7" y1="369.12" x2="256.6" y2="337.22" xlink:href="#linear-gradient"/>
    <linearGradient id="linear-gradient-5" x1="753.54" y1="369.05" x2="785.43" y2="337.16" xlink:href="#linear-gradient"/>
    <linearGradient id="linear-gradient-6" x1="301.61" y1="359.38" x2="352.89" y2="308.09" xlink:href="#linear-gradient"/>
    <linearGradient id="linear-gradient-7" x1="472.8" y1="348.2" x2="531.9" y2="289.09" xlink:href="#linear-gradient"/>
    <linearGradient id="linear-gradient-8" x1="654.26" y1="363.52" x2="711.29" y2="306.49" xlink:href="#linear-gradient"/>
    <linearGradient id="linear-gradient-9" x1="289.2" y1="847.37" x2="649.28" y2="487.29" gradientUnits="userSpaceOnUse">
      <stop offset="0" stop-color="#e8bc80"/>
      <stop offset=".33" stop-color="#a7795f"/>
      <stop offset=".67" stop-color="#e8bc80"/>
      <stop offset="1" stop-color="#a7795f"/>
    </linearGradient>
  </defs>
  <rect class="cls-5" width="1000" height="1000"/>
  <g>
    <path class="cls-11" d="M886.76,214.33c-5.55-4.54-13.3-5.68-19.73-2.92-3.91,1.68-7.31,4.74-9.83,8.86-3.58,5.83-4.74,12.72-3.17,18.91,1.11,4.37,3.17,7.9,5.86,10.4-15.13,12.35-38.66,13.71-55.33,2.51-16.22-10.9-24.66-32.97-20.53-52.55.99.14,2.01.22,3.07.22,6.81,0,14.61-2.96,18.16-8.56,3.07-4.84,3.92-11.63,2.33-18.64-1.01-4.46-3.61-8.72-7.13-11.69-3.22-2.72-7.28-3.41-10.05-3.7-5.07-.52-9.31-.01-12.96,1.57-7.79,3.38-12.72,12.12-11.73,20.81h0c.69,5.98,4.55,12.15,9.53,16.05-15.77,25.94-47.98,40.83-77.96,35.57-30.24-5.3-55.64-30.67-61.35-60.78.26,0,.52.06.78.06,1.75,0,3.48-.19,5.17-.57h0c8.93-2.03,17.84-10.56,16.67-20.82-1.28-11.12-7.86-19.66-17.18-22.29-11.04-3.11-23.89,3.29-28.05,13.97-1.79,4.6-1.99,9.52-.54,13.84,1.88,5.62,6.08,9.28,9.28,11.37,1.48.97,3.05,1.73,4.64,2.39-9.44,28.99-42.91,47.8-73.72,41.16-30.38-6.55-42.52-41.69-43.88-70.89,2.59-.96,5.04-2.57,7.15-4.91,4.3-4.79,6.79-11.86,6.19-17.62-1.06-10.27-9.97-18.77-20.27-19.35-6.1-.35-12.21,2.03-16.35,6.36-4.27,4.47-6.28,10.96-5.25,16.94,1.52,8.82,10.45,17.2,19.58,19.16-1.63,30.61-24.52,59.29-53.36,66.09-30.1,7.09-63.22-10.29-73.88-38.17,7.34-3.89,12.52-10.15,13.89-16.93,1.16-5.7-.42-11.27-4.55-16.1-4.81-5.62-12.55-8.46-20.14-7.4-7.01.98-13.62,5.27-17.69,11.46-3.14,4.79-4.32,10.03-3.33,14.76,1.2,5.69,5.54,10.72,11.9,13.8,3.24,1.57,6.61,2.4,9.85,2.56-5.7,29.56-30.28,54.64-59.91,60.43-29.74,5.8-62.1-8.32-78.43-33.76,4.74-2.28,8.21-5.65,9.61-9.67,1.34-3.8,1.05-8.25-.81-12.5-3.3-7.55-10.92-12.82-18.98-13.09-8.41-.3-16.48,4.87-19.55,12.56-3.17,7.92-.43,17.6,6.37,22.51,3.11,2.25,7.02,3.09,10.87,3.09,1.11,0,2.18-.14,3.26-.27,5.12,19.78-2.87,42.68-19.2,54.11-16.59,11.61-40.41,10.6-55.76-1.76,6.13-5.25,8.73-12.47,6.78-19.42-2.07-7.38-8.87-13.11-16.9-14.27-9.08-1.3-18.54,3.57-22.51,11.58-4.15,8.39-1.68,19.3,5.64,24.83,3.1,2.35,6.94,3.51,10.98,3.51,2.51,0,5.1-.5,7.64-1.39,6.74,12.56,24.91,49.64,42.53,85.61,18.35,37.47,37.33,76.22,43.48,87.39.63,1.15,1.75,1.76,2.94,2.01,0,0,.01,0,.02,0,.29.06.54.23.84.23.07,0,.14-.05.21-.05.11,0,.21.05.32.05.38,0,.76-.05,1.15-.16,182.73-49.98,365.37-49.97,558.34.01.23.06.44.02.67.04.14.01.28.1.42.1.09,0,.16-.06.25-.07.69-.04,1.37-.19,1.96-.54.02-.01.03-.03.05-.04.58-.36,1.03-.88,1.4-1.48.05-.08.14-.11.19-.2,5.94-11.3,24.03-50.46,41.52-88.34,16.9-36.58,34.32-74.3,40.69-86.7.52.05,1.04.14,1.58.14,1.11,0,2.26-.12,3.43-.35,11.41-2.32,19.39-10.54,20.34-20.96.63-6.94-2.23-13.91-7.48-18.19ZM621,151.85c-.79-2.38-.65-5.27.4-7.95,2.14-5.49,8.2-9.26,14.1-9.26,1.19,0,2.37.15,3.52.47,7.02,1.98,10.24,9.01,10.92,14.93.6,5.23-4.77,10.2-9.97,11.38-4.18.95-9.1-.07-13.17-2.72-2.89-1.89-4.95-4.32-5.8-6.86ZM780.9,166.69c2.25-.98,5.07-1.27,8.62-.9,2.59.27,4.29.81,5.35,1.7,2.05,1.73,3.68,4.41,4.27,7,1.07,4.7.63,9.22-1.19,12.08-2.11,3.32-9.54,5.52-13.97,4.12-4.47-1.41-9.06-7.19-9.63-12.13-.56-4.9,2.26-10,6.56-11.87ZM489.12,118.58c-.58-3.32.56-6.96,2.97-9.48,2.37-2.48,6.04-3.89,9.59-3.69,5.97.34,11.52,5.65,12.14,11.59.35,3.36-1.34,7.95-4.02,10.93-1.24,1.39-3.24,3.04-5.7,3.05h-.03c-6.11,0-13.93-6.48-14.95-12.39ZM349.56,151.14c-.51-2.42.25-5.42,2.09-8.22,2.72-4.14,7.07-6.99,11.64-7.63.64-.09,1.29-.14,1.93-.14,4.02,0,7.96,1.7,10.43,4.58,2.37,2.77,3.26,5.71,2.65,8.74-.87,4.27-4.78,8.7-9.97,11.29-2.94,1.47-7.48,1.13-11.58-.84-3.87-1.87-6.56-4.78-7.2-7.79ZM206.22,188.73c-3.61-2.61-5.1-7.99-3.4-12.26,1.64-4.11,6.26-7.12,10.84-7.12.12,0,.24,0,.36,0,4.72.16,9.38,3.41,11.34,7.9.97,2.21,1.17,4.46.58,6.16-.82,2.34-3.78,4.56-7.73,5.8-4.57,1.44-9.61,1.23-11.99-.48ZM118.55,246.76c-4.04-3.05-5.42-9.36-3.09-14.07,2.31-4.68,8.13-7.62,13.5-6.85,4.62.66,8.65,3.97,9.79,8.03,1.37,4.87-2.01,9.24-5.63,11.72-4.08,2.78-10.38,4.33-14.57,1.17ZM827.87,320.45c-216.33-78.38-447.7-76.71-651.68,4.76-1.49-3.04-2.97-6.06-4.44-9.06,207.27-81.75,441.43-83.49,660.38-4.9-1.41,3.04-2.83,6.1-4.26,9.21ZM726.78,315.83c5.51,10.81,5.37,25.27-.36,38.68-5.24,12.24-16.37,21.72-29.06,24.73-9.04,2.14-19.29,1.41-31.35-2.25-9.03-2.74-15.34-6.1-19.86-10.58-5.04-4.99-8.48-12.21-9.67-20.32-1.03-7.01-.51-14.69,1.57-23.48,1.91-8.04,4.45-13.93,8.01-18.56,4.82-6.28,12.38-11.03,21.3-13.38,4.74-1.25,9.65-1.75,14.6-1.76,8.14,1.59,16.26,3.3,24.38,5.11,8.27,4.13,15.15,11.42,20.44,21.82ZM300.44,300.67h0c8.58-5.81,18.88-9.01,29.78-9.23.24,0,.47-.01.71-.01,9.85,0,19.41,4.35,28.4,12.93,8.02,7.65,12.28,20.16,11.4,33.46-.8,12.14-7.53,23.68-17.55,30.11-7.15,4.59-16.23,7.06-27.75,7.56-8.64.37-15.09-.61-20.34-3.1-5.85-2.77-10.99-7.94-14.47-14.58-3.01-5.73-4.9-12.52-5.77-20.75-.8-7.51-.39-13.37,1.27-18.44,2.25-6.87,7.33-13.24,14.3-17.97ZM356.32,372.79c11.54-7.4,19.27-20.66,20.2-34.59.99-14.99-3.94-29.2-13.18-38.02-7.32-6.98-15.28-11.5-23.46-13.43,45.32-8.51,91.37-13.48,137.76-14.84-.84.38-1.67.73-2.52,1.14h0c-9.64,4.72-17.21,11.93-21.31,20.29-2.99,6.09-4.5,13.21-4.77,22.42-.28,9.89.92,18.32,3.68,25.76,3.33,8.97,9.12,16.44,16.29,21.02,1.86,1.19,3.9,2.18,6.06,3.08-41.58.92-82.94,4.23-124.18,10.07,1.89-.88,3.73-1.81,5.43-2.9ZM511.82,272.41c13.25,3.5,23.96,9.92,31,18.57,7.8,9.58,10.68,23.94,7.72,38.39-2.71,13.22-11.95,24.9-24.11,30.5-8.67,3.98-19.15,5.37-32.07,4.22-9.68-.86-16.75-2.9-22.24-6.41-6.13-3.91-11.1-10.37-13.99-18.17-2.49-6.73-3.58-14.44-3.32-23.58.24-8.35,1.57-14.72,4.18-20.04,3.54-7.22,10.17-13.49,18.66-17.65h0c7.86-3.86,15.15-6.07,21.81-6.69,2.53-.01,5.06.03,7.59.04,1.63.17,3.23.42,4.77.83ZM528.84,365.12c13.8-6.35,24.28-19.6,27.35-34.59,3.31-16.14-.01-32.29-8.9-43.2-5.15-6.33-12.04-11.54-20.25-15.47,45.69,1.15,91.57,5.71,137.25,13.75-9.44,2.81-17.53,8-22.82,14.89-4.07,5.3-6.94,11.89-9.05,20.75-2.26,9.52-2.8,17.91-1.66,25.65,1.37,9.35,5.39,17.73,11.32,23.59,2.03,2.01,4.44,3.76,7.09,5.39-40.95-5.68-81.55-9.08-121.88-10.18.51-.21,1.06-.37,1.55-.6ZM180.01,333.02c38.23-15.23,77.43-27.63,117.31-37.2-.04.03-.08.04-.12.07-8.02,5.44-13.9,12.88-16.55,20.95-1.92,5.87-2.41,12.49-1.53,20.84.95,8.97,3.04,16.44,6.4,22.83,4.06,7.73,10.14,13.81,17.11,17.11,4,1.9,8.53,3.05,13.86,3.5-33.8,5.91-67.55,13.42-101.29,22.65-.11.03-.19.11-.29.15-8.71-17.42-20.81-42.12-32.67-66.33-.75-1.52-1.49-3.05-2.24-4.57ZM224.02,421.78c-1.38-2.61-3.11-5.98-5.15-10.01,185.42-50.46,370.76-50.46,566.52-.01-1.91,3.98-3.53,7.31-4.84,9.92-192.21-49.23-374.34-49.2-556.53.1ZM789.19,403.78s-.03-.02-.06-.03c-29.73-7.7-59.19-14.1-88.48-19.49,13.61-3.9,25.42-14.22,31.08-27.48,6.4-14.96,6.47-31.25.19-43.57-3.19-6.28-7.05-11.58-11.41-15.9,34.83,8.33,69.45,18.67,103.7,31.05-1.3,2.8-2.59,5.6-3.88,8.4-11.3,24.47-22.83,49.43-31.15,67.03ZM835.79,303.34c-221.38-79.65-458.25-77.88-667.88,5-8.27-16.85-15.92-32.35-21.57-43.54,17.32,7.56,38.86,6.11,54.71-4.99,15.37-10.76,24.38-29.36,24.53-48.24,19.6,21.31,50.42,32.25,79.02,26.66,30.08-5.87,55.54-29.58,64.63-58.65,15.33,26.18,48.88,41.4,79.56,34.17,25.27-5.95,45.99-25.82,55.14-50.41,6.16,25.2,20.64,48.93,47.24,54.66,30.81,6.65,64.06-9.22,78.89-35.69,9.65,28.89,35.56,52.11,65.74,57.41,28.71,5.04,59.3-6.48,78.49-28.17.51,18.87,9.87,37.3,25.45,47.76,16.08,10.8,37.66,11.83,54.84,3.92-4.99,10.44-11.6,24.62-18.79,40.12ZM872.18,244.98c-6.83,1.38-9.18-5.72-9.74-7.93-.98-3.87-.18-8.45,2.16-12.24,1.56-2.54,3.65-4.47,5.87-5.43,1.19-.51,2.51-.76,3.85-.76,2.48,0,5.03.85,6.97,2.43,2.99,2.44,4.69,6.64,4.33,10.69-.72,7.91-7.68,12.08-13.43,13.25Z"/>
    <path class="cls-1" d="M595.96,297.9c-10.48-.65-22.65,7.68-25.51,17.44-2.8,9.57,1.74,20.68,10.56,25.84,3.64,2.13,7.85,3.18,12.09,3.18,5.53,0,11.13-1.78,15.6-5.26,5.87-4.55,9.43-11.7,9.29-18.65-.22-11.12-10.73-21.86-22.05-22.55ZM603.4,332.25c-5.1,3.96-12.67,4.57-18,1.44-5.4-3.16-8.3-10.16-6.62-15.93,1.71-5.84,10.27-11.57,16.66-11.22,6.76.41,13.77,7.51,13.9,14.07.08,4.27-2.19,8.73-5.94,11.64Z"/>
    <path class="cls-3" d="M407.88,298.73c-5.58,1.12-10.72,4.93-14.11,10.47-3.49,5.71-4.63,12.46-3.05,18.07h0c2.74,9.72,12.58,16.62,22.55,16.62,1.64,0,3.29-.19,4.91-.58,11.43-2.78,19.39-15.33,17.02-26.85-2.35-11.45-15.63-20.07-27.31-17.72ZM416.12,334.88c-6.99,1.7-15.11-3.05-17.06-9.96-.93-3.28-.12-7.57,2.1-11.19,2.13-3.48,5.2-5.85,8.42-6.49,7.07-1.42,15.71,4.11,17.12,10.97,1.44,7.04-3.6,14.99-10.58,16.68Z"/>
    <path class="cls-2" d="M241.19,375.86c1.64,0,3.29-.19,4.91-.58,11.43-2.78,19.39-15.33,17.02-26.85-2.35-11.45-15.62-20.06-27.31-17.73-5.58,1.12-10.72,4.93-14.11,10.47-3.49,5.71-4.63,12.46-3.05,18.07,2.74,9.72,12.58,16.62,22.54,16.62ZM229.1,345.7c2.13-3.48,5.2-5.85,8.42-6.49.75-.15,1.52-.22,2.3-.22,6.53,0,13.56,5.07,14.81,11.19,1.44,7.04-3.6,14.99-10.58,16.69-6.98,1.7-15.11-3.06-17.06-9.96-.93-3.28-.12-7.57,2.1-11.19Z"/>
    <path class="cls-4" d="M764.65,330.64c-5.58,1.12-10.72,4.94-14.11,10.47-3.49,5.71-4.63,12.46-3.05,18.07h0c2.74,9.72,12.58,16.62,22.55,16.62,1.65,0,3.29-.19,4.91-.58,11.43-2.78,19.38-15.33,17.02-26.85-2.35-11.46-15.62-20.06-27.31-17.73ZM772.89,366.79c-6.97,1.7-15.11-3.06-17.06-9.96h0c-.93-3.28-.12-7.56,2.1-11.19,2.13-3.48,5.2-5.85,8.42-6.5.75-.15,1.52-.22,2.3-.22,6.53,0,13.56,5.07,14.81,11.19,1.45,7.04-3.6,14.99-10.58,16.69Z"/>
    <path class="cls-9" d="M296.67,352.39c4.06,7.37,10.09,12.68,16.99,14.98,2.95.98,6.19,1.47,9.83,1.47,1.42,0,2.9-.08,4.45-.22,8.84-.84,16.65-3.78,22.58-8.49,8.91-7.08,13.84-18.56,12.87-29.96-.96-11.28-7.7-21.8-17.57-27.46-14.75-8.44-34.41-4.83-45.73,8.42-3.04,3.56-5.36,7.77-6.7,12.17-2.88,9.45-1.68,20.05,3.3,29.1ZM298.9,324.98c1.12-3.66,3.04-7.15,5.57-10.11,9.54-11.17,26.08-14.24,38.46-7.15,8.26,4.73,13.88,13.52,14.69,22.93.8,9.35-3.4,19.14-10.7,24.94-5.05,4.01-11.81,6.52-19.53,7.26-4.68.45-8.58.13-11.9-.98-5.43-1.81-10.45-6.29-13.75-12.29-4.17-7.57-5.23-16.77-2.84-24.62Z"/>
    <path class="cls-7" d="M474.14,289.4c-6.31,6.86-10.51,15.02-12.14,23.6-1.18,6.18-.62,12.5,1.76,19.9,2.67,8.31,6.66,14.11,12.2,17.73,5.7,3.72,12.75,6.04,20.38,6.7,1.46.13,2.91.19,4.36.19,14.02,0,27.47-5.85,35.87-15.8,9.79-11.61,11.36-28.82,3.82-41.86-4.47-7.72-10.4-13.4-17.16-16.43-15.36-6.9-36.5-7.72-49.09,5.99ZM520.87,288.68c5.64,2.53,10.66,7.39,14.52,14.06,6.35,10.97,5.02,25.46-3.23,35.24-8.08,9.57-21.62,14.76-35.31,13.58-6.69-.58-12.82-2.58-17.72-5.78-4.39-2.86-7.61-7.66-9.86-14.66-2.07-6.43-2.57-11.85-1.58-17.05,1.43-7.51,5.14-14.69,10.72-20.76,5.9-6.42,14.16-9.01,22.65-9.01,6.83,0,13.82,1.68,19.82,4.38Z"/>
    <path class="cls-6" d="M672.47,296.16c-4.58.72-7.89,1.44-12.08,4.8-4.3,3.46-7.96,7.64-10.86,12.43-3.14,5.17-5.28,10.97-6.19,16.77-1.46,9.23.07,18.24,4.32,25.37,4.61,7.74,12.88,13.78,22.69,16.57,4.06,1.16,8.26,1.72,12.43,1.72,8.32,0,16.52-2.26,23.32-6.6,10.81-6.91,17.74-18.87,18.09-31.22.36-12.96-6.75-26.13-18.12-33.56-9.33-6.1-20.94-8.27-33.59-6.28ZM718.4,335.83c-.29,10.46-6.2,20.62-15.42,26.51-8.83,5.64-20.44,7.21-31.05,4.19-8.4-2.39-15.44-7.48-19.31-13.97-3.55-5.97-4.82-13.6-3.57-21.51.8-5.07,2.68-10.14,5.43-14.68,2.55-4.21,5.76-7.88,9.54-10.91,2.99-2.4,5.14-2.94,9.36-3.61,7.82-1.22,19.29-1.29,29.53,5.41,9.72,6.36,15.81,17.56,15.51,28.56Z"/>
  </g>
  <g>
    <text class="cls-10" transform="translate(252.45 819.2)"><tspan x="0" y="0">RD</tspan></text>
    <g>
      <path class="cls-8" d="M313.8,512h67.15c54.06,0,104.9,16.95,104.9,82.59s-50.84,95.68-104.9,95.68h-4.93l89.03,102.97c13.09,15.02,30.89,22.52,41.62,22.52v3.43h-78.73v-3.43c8.58,0,10.08-5.58,3.43-14.59l-6.86-7.94-89.24-102.97h-21.45v102.97c0,14.8,8.37,22.52,19.09,22.52v3.43h-71.87v-3.43c10.73,0,19.09-7.72,19.09-22.52v-255.28c0-14.8-8.37-22.52-19.09-22.52v-3.43h52.77ZM313.8,537.96v137.29h67.15c54.06,0,71.22-37.97,71.44-80.66-.21-42.91-17.38-67.58-71.44-67.58h-65.22c-1.29,3.22-1.93,6.86-1.93,10.94Z"/>
      <path class="cls-8" d="M536.47,512h83.66c72.72,0,122.06,41.4,122.06,153.6s-32.18,153.6-122.06,153.6h-102.76v-3.43c10.73,0,19.09-7.72,19.09-22.52v-255.28c0-14.8-8.37-22.52-19.09-22.52v-3.43h19.09ZM570.15,537.96v255.28c0,4.29.64,7.94,1.93,10.94h48.05c71.87,0,88.6-39.47,88.6-138.58s-24.46-138.58-88.6-138.58h-48.05c-1.29,3.22-1.93,6.86-1.93,10.94Z"/>
    </g>
  </g>
</svg>